# xmcd
# 
# Track frame offsets:
#     150
#     23325
#     41262
#     63565
#     77320
#     105562
#     124202
#     141747
#     166735
#     189522
#     214232
#     231512
#     247840
#     272212
#     285862
# 
# Disc length: 4181
# 
# Revision: 1
# Processed by: cddbd v1.5.2PL0 Copyright (c) Steve Scherf et al.
# Submitted via: fre:ac v1.0.31
# 
DISCID=c910530f
DTITLE=Hot Tuna - Hot Tuna [live]
DYEAR=1996
DGENRE=Rock/Pop
TTITLE0=Hesitation Blues
TTITLE1=How Long Blues
TTITLE2=Uncle Sam Blues
TTITLE3=Don't You Leave Me Here
TTITLE4=Death Don't Have No Mercy
TTITLE5=Know You Rider
TTITLE6=Oh Lord, Search My Heart
TTITLE7=Winin' Boy Blues
TTITLE8=New Song (For the Morning)
TTITLE9=Mann's Fate
TTITLE10=Keep Your Lamps Trimmed and Burning
TTITLE11=Candy Man
TTITLE12=True Religion
TTITLE13=Belly Shadow
TTITLE14=Come Back Baby
EXTD=
EXTT0=
EXTT1=
EXTT2=
EXTT3=
EXTT4=
EXTT5=
EXTT6=
EXTT7=
EXTT8=
EXTT9=
EXTT10=
EXTT11=
EXTT12=
EXTT13=
EXTT14=
PLAYORDER=
